<?xml version="1.0" encoding="UTF-8"?>
<svg width="80" height="80" viewBox="0 0 80 80" fill="none" xmlns="http://www.w3.org/2000/svg">
    <circle cx="40" cy="40" r="36" stroke="#6B46C1" stroke-width="4"/>
    <!-- Espiral externa -->
    <path d="M40 20C50 20 60 30 60 40C60 50 50 60 40 60C30 60 20 50 20 40C20 30 30 20 40 20" stroke="#6B46C1" stroke-width="4" fill="none"/>
    <!-- Espiral média -->
    <path d="M40 25C47 25 55 33 55 40C55 47 47 55 40 55C33 55 25 47 25 40C25 33 33 25 40 25" stroke="#6B46C1" stroke-width="4" fill="none"/>
    <!-- Espiral interna -->
    <path d="M40 30C44 30 50 36 50 40C50 44 44 50 40 50C36 50 30 44 30 40C30 36 36 30 40 30" stroke="#6B46C1" stroke-width="4" fill="none"/>
    <!-- Ponto central -->
    <circle cx="40" cy="40" r="5" fill="#6B46C1"/>
</svg> 