<?xml version="1.0" encoding="UTF-8"?>
<svg width="80" height="80" viewBox="0 0 80 80" fill="none" xmlns="http://www.w3.org/2000/svg">
    <circle cx="40" cy="40" r="36" stroke="#6B46C1" stroke-width="4"/>
    <path d="M30 40C30 34.4772 34.4772 30 40 30C45.5228 30 50 34.4772 50 40C50 45.5228 45.5228 50 40 50C34.4772 50 30 45.5228 30 40Z" fill="#6B46C1"/>
    <!-- Espelho -->
    <path d="M35 35H45V45H35V35Z" fill="white"/>
    <path d="M35 35H45V45H35V35Z" stroke="white" stroke-width="2"/>
    <!-- Reflexo -->
    <path d="M40 35L45 40L40 45" stroke="white" stroke-width="2"/>
    <path d="M35 40H45" stroke="white" stroke-width="2"/>
    <!-- Detalhes do espelho -->
    <path d="M38 38H42V42H38V38Z" fill="#6B46C1"/>
    <path d="M40 35V45" stroke="white" stroke-width="2"/>
</svg> 