<?xml version="1.0" encoding="UTF-8"?>
<svg width="80" height="80" viewBox="0 0 80 80" fill="none" xmlns="http://www.w3.org/2000/svg">
    <!-- Círculo de fundo -->
    <circle cx="40" cy="40" r="36" stroke="#6B46C1" stroke-width="4"/>
    
    <!-- Silhuetas do casal -->
    <path d="M30 35C30 32.2386 32.2386 30 35 30C37.7614 30 40 32.2386 40 35C40 37.7614 37.7614 40 35 40C32.2386 40 30 37.7614 30 35Z" fill="#6B46C1"/>
    <path d="M40 35C40 32.2386 42.2386 30 45 30C47.7614 30 50 32.2386 50 35C50 37.7614 47.7614 40 45 40C42.2386 40 40 37.7614 40 35Z" fill="#6B46C1"/>
    
    <!-- Corações conectando -->
    <path d="M35 35C35 35 37 38 40 35C43 38 45 35 45 35" stroke="white" stroke-width="2"/>
    <path d="M37 37C37 37 38 39 40 37C42 39 43 37 43 37" stroke="white" stroke-width="2"/>
</svg> 