<svg xmlns="http://www.w3.org/2000/svg" xmlns:xlink="http://www.w3.org/1999/xlink" width="40" zoomAndPan="magnify" viewBox="0 0 30 30.000001" height="40" preserveAspectRatio="xMidYMid meet" version="1.0"><defs><clipPath id="e30ea7aa71"><path d="M 0.5625 0 L 29.515625 0 L 29.515625 29.03125 L 0.5625 29.03125 Z M 0.5625 0 " clip-rule="nonzero"/></clipPath></defs><g clip-path="url(#e30ea7aa71)"><path fill="#ffffff" d="M 25.367188 4.21875 C 22.636719 1.503906 19.007812 0.0078125 15.140625 0.00390625 C 7.171875 0.00390625 0.6875 6.449219 0.683594 14.375 C 0.683594 16.90625 1.351562 19.378906 2.613281 21.558594 L 0.5625 29.007812 L 8.226562 27.007812 C 10.339844 28.152344 12.714844 28.757812 15.136719 28.757812 L 15.140625 28.757812 C 23.109375 28.757812 29.59375 22.308594 29.597656 14.386719 C 29.597656 10.546875 28.09375 6.9375 25.367188 4.21875 Z M 15.140625 26.328125 L 15.136719 26.328125 C 12.980469 26.328125 10.867188 25.753906 9.019531 24.664062 L 8.582031 24.40625 L 4.035156 25.59375 L 5.25 21.183594 L 4.960938 20.730469 C 3.761719 18.832031 3.125 16.632812 3.125 14.375 C 3.128906 7.789062 8.519531 2.433594 15.144531 2.433594 C 18.355469 2.433594 21.371094 3.675781 23.640625 5.933594 C 25.910156 8.191406 27.15625 11.195312 27.15625 14.386719 C 27.152344 20.972656 21.761719 26.328125 15.140625 26.328125 Z M 21.730469 17.382812 C 21.371094 17.203125 19.59375 16.335938 19.261719 16.214844 C 18.933594 16.097656 18.691406 16.035156 18.449219 16.394531 C 18.210938 16.757812 17.519531 17.566406 17.308594 17.804688 C 17.097656 18.042969 16.886719 18.074219 16.523438 17.894531 C 16.164062 17.714844 15 17.335938 13.621094 16.113281 C 12.546875 15.160156 11.820312 13.984375 11.609375 13.625 C 11.398438 13.265625 11.589844 13.070312 11.769531 12.890625 C 11.929688 12.730469 12.128906 12.472656 12.308594 12.261719 C 12.492188 12.054688 12.550781 11.902344 12.671875 11.664062 C 12.792969 11.425781 12.730469 11.214844 12.640625 11.035156 C 12.550781 10.855469 11.828125 9.085938 11.527344 8.367188 C 11.234375 7.667969 10.9375 7.765625 10.714844 7.753906 C 10.503906 7.742188 10.265625 7.738281 10.023438 7.738281 C 9.78125 7.738281 9.390625 7.828125 9.058594 8.1875 C 8.726562 8.546875 7.796875 9.417969 7.796875 11.183594 C 7.796875 12.949219 9.089844 14.660156 9.269531 14.898438 C 9.453125 15.140625 11.816406 18.765625 15.441406 20.320312 C 16.300781 20.691406 16.976562 20.914062 17.5 21.078125 C 18.363281 21.351562 19.152344 21.3125 19.773438 21.21875 C 20.46875 21.117188 21.910156 20.351562 22.210938 19.511719 C 22.511719 18.675781 22.511719 17.953125 22.421875 17.804688 C 22.332031 17.65625 22.09375 17.566406 21.730469 17.386719 Z M 21.730469 17.382812 " fill-opacity="1" fill-rule="evenodd"/></g></svg>